<?xml version="1.0" standalone="no"?>
<svg xmlns:xlink="http://www.w3.org/1999/xlink" id="wave" style="transform:rotate(0deg); transition: 0.3s" viewBox="0 0 1440 190" version="1.1" xmlns="http://www.w3.org/2000/svg"><defs><linearGradient id="sw-gradient-0" x1="0" x2="0" y1="1" y2="0"><stop stop-color="rgba(255, 203, 69, 1)" offset="0%"/><stop stop-color="rgba(255, 203, 69, 1)" offset="100%"/></linearGradient></defs><path style="transform:translate(0, 0px); opacity:1" fill="url(#sw-gradient-0)" d="M0,19L34.3,34.8C68.6,51,137,82,206,82.3C274.3,82,343,51,411,50.7C480,51,549,82,617,79.2C685.7,76,754,38,823,34.8C891.4,32,960,63,1029,72.8C1097.1,82,1166,70,1234,63.3C1302.9,57,1371,57,1440,72.8C1508.6,89,1577,120,1646,139.3C1714.3,158,1783,165,1851,155.2C1920,146,1989,120,2057,114C2125.7,108,2194,120,2263,110.8C2331.4,101,2400,70,2469,53.8C2537.1,38,2606,38,2674,53.8C2742.9,70,2811,101,2880,123.5C2948.6,146,3017,158,3086,161.5C3154.3,165,3223,158,3291,133C3360,108,3429,63,3497,47.5C3565.7,32,3634,44,3703,63.3C3771.4,82,3840,108,3909,120.3C3977.1,133,4046,133,4114,123.5C4182.9,114,4251,95,4320,91.8C4388.6,89,4457,101,4526,114C4594.3,127,4663,139,4731,145.7C4800,152,4869,152,4903,152L4937.1,152L4937.1,190L4902.9,190C4868.6,190,4800,190,4731,190C4662.9,190,4594,190,4526,190C4457.1,190,4389,190,4320,190C4251.4,190,4183,190,4114,190C4045.7,190,3977,190,3909,190C3840,190,3771,190,3703,190C3634.3,190,3566,190,3497,190C3428.6,190,3360,190,3291,190C3222.9,190,3154,190,3086,190C3017.1,190,2949,190,2880,190C2811.4,190,2743,190,2674,190C2605.7,190,2537,190,2469,190C2400,190,2331,190,2263,190C2194.3,190,2126,190,2057,190C1988.6,190,1920,190,1851,190C1782.9,190,1714,190,1646,190C1577.1,190,1509,190,1440,190C1371.4,190,1303,190,1234,190C1165.7,190,1097,190,1029,190C960,190,891,190,823,190C754.3,190,686,190,617,190C548.6,190,480,190,411,190C342.9,190,274,190,206,190C137.1,190,69,190,34,190L0,190Z"/></svg>